<svg viewBox="0 0 20 20" xmlns="http://www.w3.org/2000/svg" xmlns:xlink="http://www.w3.org/1999/xlink" width="20.000000" height="20.000000" fill="none">
	<rect id="svg 2" width="20.000000" height="20.000000" x="0.000000" y="0.000000" transform="matrix(1,0,0,-1,0,20)" />
	<path id="Вектор 1" d="M4.16667 7.5L1.66667 7.5C1.37411 7.5 1.0867 7.57701 0.833333 7.72329C0.579968 7.86957 0.369572 8.07997 0.223291 8.33333C0.0770106 8.5867 0 8.87411 0 9.16667L0 15C0 15.2926 0.0770104 15.58 0.223291 15.8333C0.369571 16.0867 0.579968 16.2971 0.833333 16.4434C1.0867 16.5897 1.37411 16.6667 1.66667 16.6667L4.16667 16.6667L13.5667 16.6667C13.833 16.6697 14.0962 16.6088 14.3342 16.4891C14.5722 16.3695 14.778 16.1945 14.9345 15.9789C15.0909 15.7633 15.1934 15.5134 15.2333 15.25L16.3833 7.75C16.4318 7.43053 16.3864 7.10385 16.2526 6.80973C16.1188 6.51561 15.9024 6.26672 15.6297 6.09337C15.357 5.92002 15.0398 5.82967 14.7167 5.83333L10 5.83333L10 2.5C10 2.06116 9.88448 1.63005 9.66506 1.25C9.44564 0.869952 9.13005 0.554357 8.75 0.334936C8.36995 0.115516 7.93884 0 7.5 0L4.16667 7.5L4.16667 16.6667" fill-rule="nonzero" stroke="rgb(240,245,255)" stroke-linecap="round" stroke-linejoin="round" stroke-width="1.666667" transform="matrix(1,0,0,-1,1.66699,18.333)" />
</svg>













